HIERARCHY
ROOT Hips
{
	OFFSET 0.000000 0.000000 0.000000
	CHANNELS 6 Xposition Yposition Zposition Zrotation Yrotation Xrotation 
	JOINT LowerBack
	{
		OFFSET 0.000000 0.000000 0.000000
		CHANNELS 3 Zrotation Yrotation Xrotation
		JOINT Spine
		{
			OFFSET 0.028270 2.035590 -0.193380
			CHANNELS 3 Zrotation Yrotation Xrotation
			JOINT Spine1
			{
				OFFSET 0.056720 2.048850 -0.042750
				CHANNELS 3 Zrotation Yrotation Xrotation
				JOINT Neck
				{
					OFFSET 0.000000 0.000000 0.000000
					CHANNELS 3 Zrotation Yrotation Xrotation
					JOINT Neck1
					{
						OFFSET -0.054170 1.746240 0.172020
						CHANNELS 3 Zrotation Yrotation Xrotation
						JOINT Head
						{
							OFFSET 0.104070 1.761360 -0.123970
							CHANNELS 3 Zrotation Yrotation Xrotation
							End Site
							{
								OFFSET 0.000000 0.000000 0.000000
							}
						}
					}
				}
				JOINT LeftShoulder
				{
					OFFSET 0.000000 0.000000 0.000000
					CHANNELS 3 Zrotation Yrotation Xrotation
					JOINT LeftArm
					{
						OFFSET 3.362410 1.200890 -0.311210
						CHANNELS 3 Zrotation Yrotation Xrotation
						JOINT LeftForeArm
						{
							OFFSET 4.983000 -0.000000 -0.000000
							CHANNELS 3 Zrotation Yrotation Xrotation
							JOINT LeftHand
							{
								OFFSET 3.483560 -0.000000 -0.000000
								CHANNELS 3 Zrotation Yrotation Xrotation
								JOINT LeftFingerBase
								{
									OFFSET 0.000000 0.000000 0.000000
									CHANNELS 3 Zrotation Yrotation Xrotation
									JOINT LeftHandIndex1
									{
										OFFSET 0.715260 -0.000000 -0.000000
										CHANNELS 3 Zrotation Yrotation Xrotation
										End Site
										{
											OFFSET 0.000000 0.000000 0.000000
										}
									}
								}
								JOINT LThumb
								{
									OFFSET 0.000000 0.000000 0.000000
									CHANNELS 3 Zrotation Yrotation Xrotation
									End Site
									{
										OFFSET 0.000000 0.000000 0.000000
									}
								}
							}
						}
					}
				}
				JOINT RightShoulder
				{
					OFFSET 0.000000 0.000000 0.000000
					CHANNELS 3 Zrotation Yrotation Xrotation
					JOINT RightArm
					{
						OFFSET -3.136600 1.374050 -0.404650
						CHANNELS 3 Zrotation Yrotation Xrotation
						JOINT RightForeArm
						{
							OFFSET -5.241900 -0.000000 -0.000000
							CHANNELS 3 Zrotation Yrotation Xrotation
							JOINT RightHand
							{
								OFFSET -3.444170 -0.000000 -0.000000
								CHANNELS 3 Zrotation Yrotation Xrotation
								JOINT RightFingerBase
								{
									OFFSET 0.000000 0.000000 0.000000
									CHANNELS 3 Zrotation Yrotation Xrotation
									JOINT RightHandIndex1
									{
										OFFSET -0.622530 -0.000000 -0.000000
										CHANNELS 3 Zrotation Yrotation Xrotation
										End Site
										{
											OFFSET 0.000000 0.000000 0.000000
										}
									}
								}
								JOINT RThumb
								{
									OFFSET 0.000000 0.000000 0.000000
									CHANNELS 3 Zrotation Yrotation Xrotation
									End Site
									{
										OFFSET 0.000000 0.000000 0.000000
									}
								}
							}
						}
					}
				}
			}
		}
	}
}
}
MOTION
Frames: 7
Frame Time: 0.008333
23.358718 16.234968 4.342434 -137.816674 -85.031567 179.950239 13.975967 -2.374448 2.188079 2.445777 -2.816445 -1.646575 -5.936422 -2.892757 2.798092 7.840637 -1.753633 2.797578 -3.585727 -0.323792 2.326468 0.000000 0.000000 0.000000 -4.113478 -1.205314 0.116532 -58.360416 -35.065513 11.579305 -1.656835 -63.264328 -0.046623 8.830041 -1.549802 -0.149903 -0.223779 0.362691 -0.000000 0.000000 0.000000 0.000000 0.000000 0.000000 0.000000 13.591693 -5.327604 0.862334 49.697038 -0.179215 -23.547581 3.026578 16.633946 0.007976 -0.625956 4.325260 -0.028237 0.113351 -0.082396 0.000000 0.000000 0.000000 0.000000 0.000000 0.000000 0.000000 
23.143477 16.181542 4.307028 -136.170698 -85.571203 178.111895 14.313484 -2.477957 2.407728 2.523328 -2.906215 -1.632023 -5.936411 -2.987712 2.669682 8.257950 -1.494629 2.861429 -3.596748 -0.324147 2.344122 0.000000 0.000000 0.000000 -4.355021 -1.692360 0.146589 -58.412118 -34.285926 11.345781 -1.635547 -63.511808 -0.047480 9.078830 -1.923790 -0.184993 -0.225317 0.368047 -0.000000 0.000000 0.000000 0.000000 0.000000 0.000000 0.000000 14.018004 -5.214338 0.902117 49.223597 0.045167 -23.600691 3.016703 16.238672 0.007888 -0.752757 4.419098 -0.033843 0.111953 -0.080469 0.000000 0.000000 0.000000 0.000000 0.000000 0.000000 0.000000 
22.929999 16.133682 4.273011 -133.938447 -86.119254 175.618365 14.628292 -2.589967 2.674253 2.593270 -2.996658 -1.605927 -5.946036 -3.082873 2.545616 8.741226 -1.161594 2.980604 -3.619923 -0.325317 2.374541 0.000000 0.000000 0.000000 -4.636963 -2.204867 0.174271 -58.540641 -33.480264 11.085193 -1.625143 -63.574713 -0.048188 9.352899 -2.346092 -0.226285 -0.226852 0.372514 -0.000000 0.000000 0.000000 0.000000 0.000000 0.000000 0.000000 14.560072 -5.072230 0.925530 48.657215 0.386558 -23.660176 3.007319 15.689414 0.007777 -0.949589 4.537875 -0.042548 0.110726 -0.077907 0.000000 0.000000 0.000000 0.000000 0.000000 0.000000 0.000000 
22.718022 16.092302 4.240392 -130.974120 -86.654006 172.349776 14.919994 -2.708844 2.966919 2.656884 -3.087991 -1.569202 -5.962362 -3.178192 2.440560 9.269514 -0.785553 3.138571 -3.651663 -0.326955 2.413198 0.000000 0.000000 0.000000 -4.973072 -2.684488 0.198483 -58.747055 -32.682229 10.820708 -1.626708 -63.431558 -0.048768 9.654933 -2.783687 -0.271682 -0.228514 0.375408 -0.000000 0.000000 0.000000 0.000000 0.000000 0.000000 0.000000 15.184092 -4.928216 0.930589 48.027284 0.935708 -23.843633 2.998202 14.911345 0.007662 -1.196854 4.678780 -0.054055 0.109563 -0.075024 0.000000 0.000000 0.000000 0.000000 0.000000 0.000000 0.000000 
22.507038 16.058060 4.208961 -127.302690 -87.150290 168.344527 15.170286 -2.827753 3.278463 2.709433 -3.173953 -1.524296 -5.984834 -3.267502 2.353468 9.842952 -0.364582 3.331570 -3.691878 -0.329043 2.459350 0.000000 0.000000 0.000000 -5.342376 -3.125213 0.217343 -59.045058 -31.865702 10.546761 -1.638107 -63.087030 -0.049253 9.985385 -3.201530 -0.318284 -0.230167 0.376162 -0.000000 0.000000 0.000000 0.000000 0.000000 0.000000 0.000000 15.891424 -4.774562 0.918484 47.337764 1.675772 -24.132723 2.988130 13.939924 0.007489 -1.503848 4.812377 -0.068667 0.108471 -0.071753 0.000000 0.000000 0.000000 0.000000 0.000000 0.000000 0.000000 
22.296625 16.031288 4.178326 -123.157492 -87.572930 163.852380 15.366672 -2.935960 3.602519 2.747230 -3.245149 -1.472881 -6.012488 -3.341530 2.284244 10.453044 0.100717 3.551821 -3.738658 -0.331442 2.511207 0.000000 0.000000 0.000000 -5.729141 -3.511010 0.229631 -59.436295 -31.013622 10.263207 -1.656747 -62.548061 -0.049696 10.347200 -3.565401 -0.363295 -0.231679 0.374282 -0.000000 0.000000 0.000000 0.000000 0.000000 0.000000 0.000000 16.666969 -4.600100 0.891786 46.613257 2.589896 -24.548761 2.975306 12.811213 0.007215 -1.868921 4.910833 -0.085780 0.107393 -0.068229 0.000000 0.000000 0.000000 0.000000 0.000000 0.000000 0.000000 
22.086251 16.011975 4.147841 -118.966187 -87.889070 159.317255 15.506000 -3.021920 3.935100 2.768320 -3.291685 -1.414826 -6.046023 -3.390424 2.235616 11.089530 0.578616 3.782957 -3.792295 -0.334080 2.564582 0.000000 0.000000 0.000000 -6.110216 -3.826993 0.231580 -59.920455 -30.112807 9.968701 -1.679013 -61.827352 -0.050131 10.742124 -3.845650 -0.403516 -0.232818 0.369407 0.000000 0.000000 0.000000 0.000000 0.000000 0.000000 0.000000 17.503550 -4.425715 0.853340 45.868903 3.696433 -25.044557 2.958730 11.556941 0.006806 -2.310764 4.955193 -0.105896 0.106434 -0.064604 0.000000 0.000000 0.000000 0.000000 0.000000 0.000000 0.000000 
